<svg xmlns="http://www.w3.org/2000/svg" viewBox="0 0 53.81 25.46"><defs><style>.a,.c{fill:#2d3486;}.a{fill-rule:evenodd;}.b,.d{fill:#fff;}.d{stroke:#2d3486;stroke-width:0.61px;}</style></defs><path class="a" d="M13.58,0C20.06,7.79,10.2,16.33,0,24.6c19.55-7.64,29.76-10.69,52.7.86Z"/><path class="b" d="M16.9,17.18a2.08,2.08,0,0,1-1.61-.68,2.75,2.75,0,0,1-.61-1.92A4.33,4.33,0,0,1,15.49,12a2.63,2.63,0,0,1,2.24-1.2,2.19,2.19,0,0,1,1.51.53l.49-2.25.3-.24h1.49l.29.37-1.66,7.58-.29.24H18.45l-.21-.25a2.9,2.9,0,0,1-.34.19A2.7,2.7,0,0,1,16.9,17.18Zm1-4.66a1,1,0,0,0-.82.58,2.79,2.79,0,0,0-.38,1.41,1,1,0,0,0,.22.72.68.68,0,0,0,.52.23.91.91,0,0,0,.57-.21,1.67,1.67,0,0,0,.47-.72,3,3,0,0,0,.19-1,1.09,1.09,0,0,0-.25-.76A.67.67,0,0,0,17.93,12.52Z"/><path class="c" d="M21.52,9.17l-1.66,7.58H18.45l.12-.6a2.89,2.89,0,0,1-.79.56,2.26,2.26,0,0,1-.88.17,1.81,1.81,0,0,1-1.39-.59A2.47,2.47,0,0,1,15,14.58a4,4,0,0,1,.76-2.39,2.31,2.31,0,0,1,2-1.06,1.85,1.85,0,0,1,1.68.88L20,9.17h1.49m-4.05,6.59a1.19,1.19,0,0,0,.76-.28,1.85,1.85,0,0,0,.56-.84A3.14,3.14,0,0,0,19,13.55a1.41,1.41,0,0,0-.32-1,1,1,0,0,0-.75-.37,1.24,1.24,0,0,0-1.08.72,3.11,3.11,0,0,0-.42,1.57,1.32,1.32,0,0,0,.3.92,1,1,0,0,0,.74.33m4.05-7.2H20L19.44,9l-.4,1.8a2.67,2.67,0,0,0-1.31-.32,3,3,0,0,0-2.49,1.32,4.67,4.67,0,0,0-.86,2.74,3.07,3.07,0,0,0,.68,2.12,2.39,2.39,0,0,0,1.84.78A2.76,2.76,0,0,0,18,17.26a1.42,1.42,0,0,0,.25-.12l.18.21h1.41l.59-.47L22.11,9.3l-.59-.74Zm-4.05,6.59a.35.35,0,0,1-.29-.13.71.71,0,0,1-.15-.51,2.41,2.41,0,0,1,.34-1.26c.25-.42.47-.42.56-.42a.37.37,0,0,1,.29.16.78.78,0,0,1,.17.56,2.44,2.44,0,0,1-.17.88,1.29,1.29,0,0,1-.37.58.6.6,0,0,1-.38.14Z"/><path class="b" d="M23.66,17.18a1.82,1.82,0,0,1-1.34-.54,1.85,1.85,0,0,1-.53-1.36,2,2,0,0,1,.58-1.48,3.11,3.11,0,0,1,1.93-.65A9.84,9.84,0,0,0,25.49,13a1.28,1.28,0,0,0,0-.25.2.2,0,0,0-.08-.17.6.6,0,0,0-.38-.09.81.81,0,0,0-.45.11.52.52,0,0,0-.19.3l-.32.22L22.66,13l-.26-.39a2.47,2.47,0,0,1,1-1.31,3.16,3.16,0,0,1,1.8-.47,2.68,2.68,0,0,1,1.76.5,1.62,1.62,0,0,1,.62,1.28,3.88,3.88,0,0,1-.05.57c0,.19-.13.68-.31,1.49A6.33,6.33,0,0,0,27,16a2.66,2.66,0,0,0,.11.69l-.29.39H25.37l-.29-.22,0-.11a2.75,2.75,0,0,1-.41.24A2.45,2.45,0,0,1,23.66,17.18Zm1.49-2.62a3,3,0,0,0-1.23.32.3.3,0,0,0-.13.26.27.27,0,0,0,.1.22.35.35,0,0,0,.28.1.91.91,0,0,0,.48-.13A.81.81,0,0,0,25,15,2.64,2.64,0,0,0,25.15,14.56Z"/><path class="c" d="M25.19,11.13a2.43,2.43,0,0,1,1.57.42,1.35,1.35,0,0,1,.5,1,3.2,3.2,0,0,1,0,.52c0,.19-.13.68-.31,1.47A7.9,7.9,0,0,0,26.7,16a3,3,0,0,0,.12.78H25.37a3.21,3.21,0,0,1-.1-.62,2.34,2.34,0,0,1-.75.55,2.07,2.07,0,0,1-.86.2,1.5,1.5,0,0,1-1.12-.45,1.55,1.55,0,0,1-.45-1.15A1.69,1.69,0,0,1,22.58,14a2.92,2.92,0,0,1,1.75-.57,7.32,7.32,0,0,0,1.41-.21,1.83,1.83,0,0,0,.09-.49.5.5,0,0,0-.19-.4.83.83,0,0,0-.57-.16,1,1,0,0,0-.62.16.83.83,0,0,0-.32.47l-1.44-.13a2.17,2.17,0,0,1,.86-1.15,3,3,0,0,1,1.64-.41m.36,3a2.08,2.08,0,0,1-.36.07,3.49,3.49,0,0,0-1.46.39.61.61,0,0,0-.24.5.56.56,0,0,0,.19.44.66.66,0,0,0,.49.18,1.28,1.28,0,0,0,.63-.16,1.05,1.05,0,0,0,.44-.42,2.66,2.66,0,0,0,.26-.8l.05-.2m-.36-3.66a3.42,3.42,0,0,0-2,.52,2.76,2.76,0,0,0-1.11,1.46l.5.76a1.87,1.87,0,0,0-.45.33,2.24,2.24,0,0,0-.67,1.69,2.18,2.18,0,0,0,.62,1.58,2.13,2.13,0,0,0,1.55.62,2.57,2.57,0,0,0,1.11-.25L25,17.1l.34.25h1.45l.58-.77a2.56,2.56,0,0,1-.1-.61,7.34,7.34,0,0,1,.2-1.25c.24-1.08.3-1.38.32-1.5a4.69,4.69,0,0,0,.05-.62,1.94,1.94,0,0,0-.72-1.51,3,3,0,0,0-2-.57Zm-1,4.63H24.1a1.31,1.31,0,0,1,.57-.2.7.7,0,0,1-.16.13.81.81,0,0,1-.34.08Z"/><path class="d" d="M34.07,14.46H30.35c0,.06,0,.1,0,.13a1.26,1.26,0,0,0,.32.89,1,1,0,0,0,.76.33,1.27,1.27,0,0,0,1.15-.76l1.33.22a2.75,2.75,0,0,1-1,1.2,2.69,2.69,0,0,1-1.45.41,2.44,2.44,0,0,1-1.8-.7,2.55,2.55,0,0,1-.7-1.86,3.33,3.33,0,0,1,.63-2A2.8,2.8,0,0,1,32,11.13a2.08,2.08,0,0,1,1.6.62,2.4,2.4,0,0,1,.6,1.74A4.74,4.74,0,0,1,34.07,14.46Zm-1.26-.9a1,1,0,0,0,0-.15,1.37,1.37,0,0,0-.27-.92,1,1,0,0,0-.74-.3,1.16,1.16,0,0,0-.82.34,1.88,1.88,0,0,0-.49,1Z"/><path class="d" d="M36.57,11.25H38l-.14.72a3.89,3.89,0,0,1,1-.65,2.43,2.43,0,0,1,1-.19,1.49,1.49,0,0,1,1.08.39,1.39,1.39,0,0,1,.39,1,7.49,7.49,0,0,1-.18,1.1l-.67,3.1H38.94l.68-3.11q.14-.71.15-.84a.61.61,0,0,0-.17-.45.66.66,0,0,0-.48-.16,1.35,1.35,0,0,0-.73.27,1.94,1.94,0,0,0-.63.73,5.56,5.56,0,0,0-.38,1.3l-.47,2.26H35.43Z"/><path class="d" d="M48,14.46H44.29v.13a1.25,1.25,0,0,0,.31.89,1,1,0,0,0,.76.33,1.26,1.26,0,0,0,1.15-.76l1.33.22a2.7,2.7,0,0,1-2.49,1.61,2.44,2.44,0,0,1-1.8-.7,2.54,2.54,0,0,1-.69-1.86,3.39,3.39,0,0,1,.62-2,2.8,2.8,0,0,1,2.44-1.19,2.09,2.09,0,0,1,1.6.62,2.44,2.44,0,0,1,.59,1.74A4.13,4.13,0,0,1,48,14.46Zm-1.25-.9v-.15a1.37,1.37,0,0,0-.27-.92.94.94,0,0,0-.73-.3,1.18,1.18,0,0,0-.83.34,2,2,0,0,0-.49,1Z"/><path class="d" d="M49.72,12.35l.23-1.1h.73l.18-.87,1.68-1-.38,1.89h.9l-.23,1.1h-.9l-.49,2.31c-.08.41-.13.65-.13.71a.37.37,0,0,0,.11.27.67.67,0,0,0,.4.09l.49,0-.24,1.1a4,4,0,0,1-.78.08,1.73,1.73,0,0,1-1.14-.31,1,1,0,0,1-.36-.84A7.57,7.57,0,0,1,50,14.57l.48-2.22Z"/><path class="b" d="M31.41,17.18a2.75,2.75,0,0,1-2-.79,2.81,2.81,0,0,1-.78-2.07,3.71,3.71,0,0,1,.68-2.18A3.13,3.13,0,0,1,32,10.82a2.38,2.38,0,0,1,1.82.72,2.72,2.72,0,0,1,.68,2,4.74,4.74,0,0,1-.11,1l-.29.23H32.7L34,15l.22.43A3,3,0,0,1,33,16.73,3,3,0,0,1,31.41,17.18Zm-.75-2.42a.8.8,0,0,0,.22.51.7.7,0,0,0,.54.24,1,1,0,0,0,.88-.61l.29-.14Zm1.85-1.51a.9.9,0,0,0-.19-.55.64.64,0,0,0-.51-.21.9.9,0,0,0-.61.26,1.37,1.37,0,0,0-.31.5Z"/><path class="c" d="M32,11.13a2.08,2.08,0,0,1,1.6.62,2.4,2.4,0,0,1,.6,1.74,4.74,4.74,0,0,1-.1,1H30.35a.72.72,0,0,0,0,.13,1.26,1.26,0,0,0,.32.89,1,1,0,0,0,.76.33,1.27,1.27,0,0,0,1.15-.76l1.33.22a2.75,2.75,0,0,1-1,1.2,2.69,2.69,0,0,1-1.45.41,2.44,2.44,0,0,1-1.8-.7,2.55,2.55,0,0,1-.7-1.86,3.33,3.33,0,0,1,.63-2A2.8,2.8,0,0,1,32,11.13M30.5,13.56h2.31a1,1,0,0,0,0-.15,1.37,1.37,0,0,0-.27-.92,1,1,0,0,0-.74-.3,1.13,1.13,0,0,0-.82.35,1.81,1.81,0,0,0-.49,1m1.47-3A3.41,3.41,0,0,0,29.05,12a4,4,0,0,0-.74,2.36,3.1,3.1,0,0,0,.87,2.28,3,3,0,0,0,2.23.88A3.28,3.28,0,0,0,33.18,17a3.45,3.45,0,0,0,1.26-1.45L34.16,15l.5-.39a4.72,4.72,0,0,0,.12-1.11A3,3,0,0,0,34,11.33a2.69,2.69,0,0,0-2-.81ZM31.44,13a.52.52,0,0,1,.37-.15.32.32,0,0,1,.28.1l0,0Zm-.34,2.12h.71a.6.6,0,0,1-.39.14.41.41,0,0,1-.32-.14Z"/><path class="b" d="M38.57,17.05l.75-3.48q.13-.66.15-.78a.29.29,0,0,0-.08-.22s-.08-.08-.27-.08a1.15,1.15,0,0,0-.56.22,1.6,1.6,0,0,0-.53.62,5,5,0,0,0-.35,1.23l-.52,2.49H35.05L36.33,11h2l-.06.31a3.51,3.51,0,0,1,.43-.22,2.87,2.87,0,0,1,1.09-.22,1.76,1.76,0,0,1,1.29.48,1.7,1.7,0,0,1,.48,1.25,6,6,0,0,1-.19,1.16l-.72,3.34Z"/><path class="c" d="M39.81,11.13a1.45,1.45,0,0,1,1.07.39,1.36,1.36,0,0,1,.4,1,6.5,6.5,0,0,1-.19,1.1l-.66,3.1H38.94l.67-3.11c.1-.47.15-.75.16-.84a.61.61,0,0,0-.17-.45.66.66,0,0,0-.48-.16,1.35,1.35,0,0,0-.73.27,1.94,1.94,0,0,0-.63.73,5.56,5.56,0,0,0-.38,1.3l-.47,2.26H35.43l1.14-5.5H38l-.15.72a4.11,4.11,0,0,1,1-.65,2.43,2.43,0,0,1,1-.19m0-.61a3.15,3.15,0,0,0-1.1.2v-.07H36.08l-.1.48-1.15,5.49-.15.73H37.4l.1-.48L38,14.62a6.49,6.49,0,0,1,.32-1.15,1.37,1.37,0,0,1,.44-.51.75.75,0,0,1,.39-.16h0c0,.07,0,.25-.14.71l-.67,3.11-.16.73h2.73l.1-.47.67-3.11a5.92,5.92,0,0,0,.19-1.21,2,2,0,0,0-.57-1.47,2,2,0,0,0-1.5-.57Z"/><path class="b" d="M45.35,17.18a2.75,2.75,0,0,1-2-.79,2.87,2.87,0,0,1-.78-2.07,3.65,3.65,0,0,1,.69-2.18,3.11,3.11,0,0,1,2.68-1.32,2.41,2.41,0,0,1,1.82.72,2.72,2.72,0,0,1,.68,2,4.18,4.18,0,0,1-.12,1l0,.23H46.64l1.65.28-.18.36A3,3,0,0,1,47,16.73,3,3,0,0,1,45.35,17.18Zm-.75-2.42a.85.85,0,0,0,.22.51.7.7,0,0,0,.54.24,1,1,0,0,0,.89-.61l.07-.14Zm1.85-1.51a.9.9,0,0,0-.19-.55.61.61,0,0,0-.5-.21.91.91,0,0,0-.62.26,1.24,1.24,0,0,0-.3.5Z"/><path class="c" d="M45.92,11.13a2.09,2.09,0,0,1,1.6.62,2.44,2.44,0,0,1,.59,1.74,4.13,4.13,0,0,1-.1,1H44.29v.13a1.25,1.25,0,0,0,.31.89,1,1,0,0,0,.76.33,1.26,1.26,0,0,0,1.15-.76l1.33.22a2.7,2.7,0,0,1-2.49,1.61,2.44,2.44,0,0,1-1.8-.7,2.54,2.54,0,0,1-.69-1.86,3.39,3.39,0,0,1,.62-2,2.8,2.8,0,0,1,2.44-1.19m-1.48,2.43h2.32v-.15a1.37,1.37,0,0,0-.27-.92.94.94,0,0,0-.73-.3,1.15,1.15,0,0,0-.83.35,1.88,1.88,0,0,0-.49,1m1.48-3A3.42,3.42,0,0,0,43,12a4,4,0,0,0-.74,2.36,3.1,3.1,0,0,0,.87,2.28,3,3,0,0,0,2.23.88A3.25,3.25,0,0,0,47.12,17a3.48,3.48,0,0,0,1.27-1.45l.35-.73-.18,0,0-.18a4.72,4.72,0,0,0,.12-1.11A3,3,0,0,0,48,11.33a2.7,2.7,0,0,0-2-.81ZM45.38,13a.53.53,0,0,1,.38-.15.35.35,0,0,1,.28.1l0,0ZM45,15.07h.71a.6.6,0,0,1-.39.14.41.41,0,0,1-.32-.14Z"/><path class="b" d="M51.29,17.18A2,2,0,0,1,50,16.81a1.34,1.34,0,0,1-.46-1.08,6.83,6.83,0,0,1,.2-1.23l.39-1.84h-.73L49.7,11h.73l.16-.76L53,8.74,52.53,11h.9l-.35,1.71h-.9l-.44,2.06a5.28,5.28,0,0,0-.12.66s0,0,.2,0l.46,0,.41,0-.36,1.7-.2,0A4.6,4.6,0,0,1,51.29,17.18Z"/><path class="c" d="M52.54,9.36l-.38,1.89h.9l-.23,1.1h-.9l-.49,2.31c-.08.41-.13.65-.13.71a.37.37,0,0,0,.11.27.65.65,0,0,0,.4.09l.49,0-.24,1.1a4,4,0,0,1-.78.08,1.73,1.73,0,0,1-1.14-.31,1,1,0,0,1-.36-.84A7.57,7.57,0,0,1,50,14.57l.48-2.22h-.74l.23-1.1h.73l.18-.87,1.68-1m.88-1.24-1.19.72-1.69,1-.22.14-.06.26-.08.39h-.73l-.1.48-.22,1.1L49,13h.74l-.32,1.48a7.7,7.7,0,0,0-.21,1.29A1.67,1.67,0,0,0,49.75,17a2.32,2.32,0,0,0,1.54.44,4.43,4.43,0,0,0,.9-.09l.39-.08.09-.39.23-1.1.17-.8-.82.07-.28,0,.07-.34L52.42,13h.91l.1-.48.23-1.1.15-.73H52.9l.24-1.17.28-1.36Z"/></svg>