<svg xmlns="http://www.w3.org/2000/svg" xmlns:xlink="http://www.w3.org/1999/xlink" width="434.503" height="77.5" viewBox="0 0 434.503 77.5">
  <defs>
    <clipPath id="clip-path">
      <circle id="Ellipse_60" data-name="Ellipse 60" cx="38.715" cy="38.715" r="38.715" fill="#1583d8"/>
    </clipPath>
  </defs>
  <g id="NeoCortexAPI-landscape" transform="translate(217.252 38.75)">
    <g id="Group_231" data-name="Group 231" transform="translate(-217.252 -38.75)">
      <g id="Group_229" data-name="Group 229">
        <circle id="Ellipse_59" data-name="Ellipse 59" cx="38.715" cy="38.715" r="38.715" fill="#1583d8"/>
        <g id="Group_228" data-name="Group 228" clip-path="url(#clip-path)">
          <g id="Group_227" data-name="Group 227" transform="translate(13.247 11.183)">
            <path id="Path_660" data-name="Path 660" d="M114.466,70.842a.565.565,0,0,1-.458-.512,7.437,7.437,0,0,0-7.415-6.852c-2.024,0-2.478.743-2.894.15a9.959,9.959,0,0,0-13.4-2.784c-2.7,1.671-2.643,3.092-3.454,2.879a7.436,7.436,0,0,0-9.294,6.6.563.563,0,0,1-.456.51,8.322,8.322,0,0,0-4.336,2.294,8.239,8.239,0,0,0,1.707,13.015A9.546,9.546,0,0,0,78.5,87.378a.564.564,0,0,1,.546.563,6.007,6.007,0,0,0,8.9,5.327.564.564,0,0,1,.84.492v34.3a1.162,1.162,0,0,0,1.1,1.177,1.13,1.13,0,0,0,1.165-1.13s.01-39.989.01-40.1a6.007,6.007,0,0,0-8.659-5.39.565.565,0,0,1-.819-.5V80.833A2.933,2.933,0,0,0,78.653,77.9a1.13,1.13,0,0,0,0,2.261.672.672,0,0,1,.672.672v3.695a.562.562,0,0,1-.593.564c-6.029-.4-7.924-6.81-4.379-10.361a6.056,6.056,0,0,1,4.3-1.78l.059,0h.023a6.077,6.077,0,0,1,5.166,3,1.154,1.154,0,0,0,1.515.45,1.13,1.13,0,0,0,.449-1.57,8.373,8.373,0,0,0-2.95-2.97,8.28,8.28,0,0,0-2.628-1,.569.569,0,0,1-.451-.638,5.177,5.177,0,0,1,7.4-3.953,1.11,1.11,0,0,0,1.455-.494,7.86,7.86,0,0,1,2.8-3,7.7,7.7,0,0,1,8.17.054,7.863,7.863,0,0,1,2.806,3.122,1.133,1.133,0,0,0,1.285.594,1.2,1.2,0,0,0,.31-.129,5.176,5.176,0,0,1,7.669,3.8.569.569,0,0,1-.45.638,8.34,8.34,0,0,0-5.622,4.059,1.156,1.156,0,0,0,.3,1.52,1.131,1.131,0,0,0,1.642-.368,6.116,6.116,0,0,1,2.19-2.252,6.042,6.042,0,0,1,2.99-.854h.126a6.076,6.076,0,0,1,6.08,6.076c0,.033,0,.064,0,.093a5.681,5.681,0,0,1-.537,2.333,6.274,6.274,0,0,1-2.359,2.634,6.442,6.442,0,0,1-3.254,1,.568.568,0,0,1-.6-.564v-3.7a.673.673,0,0,1,.673-.672,1.13,1.13,0,0,0,0-2.261,2.933,2.933,0,0,0-2.933,2.933v3.712a.565.565,0,0,1-.565.565h-4.864a.672.672,0,0,1-.672-.672v-1.8a2.933,2.933,0,0,0-2.933-2.933H97.33a.673.673,0,0,1-.672-.672V77.538a5.143,5.143,0,1,0-2.261,0v1.493a2.933,2.933,0,0,0,2.933,2.933h3.606a.673.673,0,0,1,.672.672v1.8a2.933,2.933,0,0,0,2.933,2.933c9.971,0,5.249.011,6.568,0,2.025,0,4.752.154,7.469-2.351A8.259,8.259,0,0,0,114.466,70.842ZM85.057,84.259a3.748,3.748,0,0,1,3.737,3.564c0,.006,0,.011,0,.017v.365a3.744,3.744,0,1,1-3.736-3.946ZM92.644,72.52a2.883,2.883,0,1,1,3.114,2.871,1.135,1.135,0,0,0-.464,0A2.885,2.885,0,0,1,92.644,72.52Z" transform="translate(-70.31 -59.358)" fill="#fff"/>
            <path id="Path_661" data-name="Path 661" d="M70.528,168.108h0Z" transform="translate(-70.486 -147.618)" fill="#fff"/>
          </g>
        </g>
      </g>
      <g id="Group_230" data-name="Group 230" transform="translate(95.618 37.798)">
        <path id="Path_662" data-name="Path 662" d="M507.524,243.156V205.163h5.126l23.126,25.347V205.163h7.4v37.993h-5.127l-23.126-25.4v25.4Z" transform="translate(-507.524 -204.309)" fill="#1583d8"/>
        <path id="Path_663" data-name="Path 663" d="M744.022,290.246c-.74,1.823-3.532,7.69-12.133,7.69a12.909,12.909,0,0,1-9.456-3.475,12.427,12.427,0,0,1-3.873-9.626,13.136,13.136,0,0,1,3.76-9.683,12.636,12.636,0,0,1,9.285-3.475c5.013,0,7.917,1.994,9.626,4.044,2.62,3.133,2.962,7.006,2.962,9.683v.57H725.737a7.277,7.277,0,0,0,1.2,4.158,5.87,5.87,0,0,0,4.956,2.335,6.359,6.359,0,0,0,5.753-3.247Zm-6.38-8.715a5.917,5.917,0,0,0-11.677,0Z" transform="translate(-678.801 -258.291)" fill="#1583d8"/>
        <path id="Path_664" data-name="Path 664" d="M896.242,275.152a13.288,13.288,0,0,1,0,19.31c-2.108,1.937-5.3,3.475-9.968,3.475s-7.861-1.538-9.968-3.475a13.287,13.287,0,0,1,0-19.31c2.108-1.937,5.3-3.475,9.968-3.475S894.135,273.215,896.242,275.152Zm-3.019,9.683a6.949,6.949,0,1,0-6.949,6.949A6.882,6.882,0,0,0,893.224,284.835Z" transform="translate(-803.453 -258.291)" fill="#1583d8"/>
        <path id="Path_665" data-name="Path 665" d="M1070.519,238.108a19.671,19.671,0,0,1-9.4,2.221c-6.664,0-10.708-2.278-13.9-5.3a18.935,18.935,0,0,1-6.095-14.525,19.865,19.865,0,0,1,6.095-14.867c3.816-3.588,8.544-5.012,13.955-5.012a19.1,19.1,0,0,1,9.342,2.335v8.658a12.219,12.219,0,0,0-9.171-4.272c-7.633,0-12.589,6.266-12.589,13.272a12.585,12.585,0,0,0,12.873,12.987,11.5,11.5,0,0,0,8.886-4.158Z" transform="translate(-940.596 -200.628)" fill="#1583d8"/>
        <path id="Path_666" data-name="Path 666" d="M1239.942,275.152a13.288,13.288,0,0,1,0,19.31c-2.108,1.937-5.3,3.475-9.968,3.475s-7.861-1.538-9.968-3.475a13.288,13.288,0,0,1,0-19.31c2.108-1.937,5.3-3.475,9.968-3.475S1237.835,273.215,1239.942,275.152Zm-3.019,9.683a6.949,6.949,0,1,0-6.949,6.949A6.882,6.882,0,0,0,1236.924,284.835Z" transform="translate(-1082.399 -258.291)" fill="#1583d8"/>
        <path id="Path_667" data-name="Path 667" d="M1389.907,272.474h6.949v3.7a8.317,8.317,0,0,1,3.076-3.418,7.559,7.559,0,0,1,4.1-1.082,8.552,8.552,0,0,1,2.962.57l-.911,6.494a5.223,5.223,0,0,0-3.247-.911,5.677,5.677,0,0,0-4.614,1.994c-1.31,1.652-1.367,3.759-1.367,5.468v11.848h-6.949Z" transform="translate(-1223.665 -258.291)" fill="#1583d8"/>
        <path id="Path_668" data-name="Path 668" d="M1498.785,245.518v18.74h-6.949v-18.74H1489.1v-5.924h2.734v-8.43h6.949v8.43h4.785v5.924Z" transform="translate(-1304.172 -225.411)" fill="#1583d8"/>
        <path id="Path_669" data-name="Path 669" d="M1600.426,290.246c-.74,1.823-3.532,7.69-12.133,7.69a12.909,12.909,0,0,1-9.455-3.475,12.428,12.428,0,0,1-3.873-9.626,13.136,13.136,0,0,1,3.759-9.683,12.637,12.637,0,0,1,9.285-3.475c5.013,0,7.918,1.994,9.626,4.044,2.62,3.133,2.962,7.006,2.962,9.683v.57h-18.456a7.277,7.277,0,0,0,1.2,4.158,5.87,5.87,0,0,0,4.955,2.335,6.359,6.359,0,0,0,5.753-3.247Zm-6.38-8.715a5.917,5.917,0,0,0-11.677,0Z" transform="translate(-1373.858 -258.291)" fill="#1583d8"/>
        <path id="Path_670" data-name="Path 670" d="M1722.479,287.131l-9.456-11.221h8.772l5.013,6.38,5.126-6.38h8.772l-9.626,11.221,11.677,13.443h-8.886l-7.063-8.6-7.177,8.6h-8.886Z" transform="translate(-1484.057 -261.727)" fill="#1583d8"/>
        <path id="Path_671" data-name="Path 671" d="M1915.9,235.181h-15.322l-3.361,7.974h-8.031l16.348-37.993h5.81l15.892,37.993h-7.974Zm-2.165-6.038-5.411-13.671-5.411,13.671Z" transform="translate(-1628.88 -204.309)" fill="#1583d8"/>
        <path id="Path_672" data-name="Path 672" d="M2121.946,205.163c4.272,0,7.234.456,10.025,2.905a12.1,12.1,0,0,1,3.873,9.171c0,1.481-.228,5.582-3.133,8.487-2.108,2.108-5.24,3.361-9.626,3.361H2118.3v14.069H2110.9V205.163Zm-3.646,17.544h3.019a7.579,7.579,0,0,0,4.842-1.2,5.671,5.671,0,0,0,2.05-4.443,5.233,5.233,0,0,0-2.107-4.329,8.915,8.915,0,0,0-5.24-1.2H2118.3Z" transform="translate(-1808.819 -204.309)" fill="#1583d8"/>
        <path id="Path_673" data-name="Path 673" d="M2274.37,205.163v37.993h-7.405V205.163Z" transform="translate(-1935.485 -204.309)" fill="#1583d8"/>
      </g>
    </g>
  </g>
</svg>
